<?xml version="1.0" encoding="UTF-8"?>
<svg width="1630px" height="176px" viewBox="0 0 1630 176" version="1.1" xmlns="http://www.w3.org/2000/svg" xmlns:xlink="http://www.w3.org/1999/xlink">
    <title>Slice</title>
    <g id="Page-1" stroke="none" stroke-width="1" fill="none" fill-rule="evenodd">
        <path d="M-7,86 C-8.94926151,52.6844404 8.05073849,37.351107 44,40 C97.9238923,43.9733394 138,92 183,100 C228,108 283,18 340,45 C397,72 453,165 567,162 C681,159 786,86 854,86 C922,86 945,128 1003,126 C1061,124 1124,24 1158,24 C1192,24 1206,81 1297,75 C1388,69 1423,20 1498,15 C1548,11.6666667 1594.33333,34.3333333 1637,83 L1636.84961,176 L-7.15038662,176" id="Path-2" fill="#090A0B" transform="translate(814.924807, 95.339744) scale(-1, 1) translate(-814.924807, -95.339744) "></path>
    </g>
</svg>