<?xml version="1.0" encoding="UTF-8"?>
<svg width="310px" height="122px" viewBox="0 0 310 122" version="1.1" xmlns="http://www.w3.org/2000/svg" xmlns:xlink="http://www.w3.org/1999/xlink">
    <title>Group 11</title>
    <g id="Page-2" stroke="none" stroke-width="1" fill="none" fill-rule="evenodd">
        <g id="Group-11" transform="translate(3.000000, 3.000000)">
            <g id="Group-9">
                <rect id="Rectangle" stroke="#FFFFFF" stroke-width="2.5" fill="#1E2024" x="-1.25" y="-1.25" width="306.5" height="118.5" rx="10"></rect>
                <path d="M10,0 L294,0 C299.522847,-1.01453063e-15 304,4.4771525 304,10 L304,36 L304,36 L0,36 L0,10 C-6.76353751e-16,4.4771525 4.4771525,1.01453063e-15 10,0 Z" id="Rectangle" fill-opacity="0.35" fill="#616263"></path>
                <g id="Group" transform="translate(12.000000, 11.000000)">
                    <circle id="Oval" fill="#EC5D58" cx="7.5" cy="7.5" r="7.5"></circle>
                    <circle id="Oval" fill="#F0B633" cx="32.5" cy="7.5" r="7.5"></circle>
                    <circle id="Oval" fill="#41C541" cx="57.5" cy="7.5" r="7.5"></circle>
                </g>
            </g>
            <g id="Group-12" transform="translate(31.000000, 49.000000)">
                <g id="dangerous" transform="translate(192.000000, 1.000000)" fill="#FF453A">
                    <path d="M9.95183121,0 L40.0481688,0 C40.21112,0 40.3739384,0.00399580679 40.5366242,0.0119874204 C40.69931,0.019979034 40.8615977,0.0319568206 41.0234873,0.0479207803 C41.1856423,0.0638846868 41.3472665,0.083815552 41.5083599,0.107713376 C41.6694533,0.131611465 41.8298832,0.159447585 41.9896497,0.191221736 C42.1494161,0.222995886 42.3082537,0.258669984 42.4661624,0.298244029 C42.6243365,0.337817808 42.7813163,0.381244161 42.9371019,0.428523089 C43.0928875,0.475800159 43.2474788,0.526873673 43.4008758,0.581743631 C43.5542728,0.636613588 43.7062102,0.695212314 43.8566879,0.757539809 C44.0071656,0.81986465 44.1559183,0.885845276 44.3029459,0.955481688 C44.4502389,1.0251181 44.5956741,1.09832404 44.7392516,1.17509952 C44.8830945,1.251875 45.0248142,1.33212845 45.1644108,1.41585987 C45.3040074,1.4995913 45.4416136,1.58669984 45.5772293,1.67718551 C45.7125796,1.76767118 45.8456741,1.86142383 45.9765127,1.95844347 C46.1073514,2.05546576 46.2356688,2.15563827 46.361465,2.25896099 C46.4875265,2.3622837 46.6108015,2.46863323 46.7312898,2.57800955 C46.8520435,2.68738588 46.9700106,2.79965764 47.0851911,2.91482484 C47.2003715,3.02998938 47.3126327,3.14791136 47.4219745,3.26859076 C47.5313163,3.38926752 47.6376062,3.51255573 47.7408439,3.63845541 C47.8443471,3.7643551 47.9445329,3.89271231 48.0414013,4.02352707 C48.138535,4.15433917 48.2323514,4.28746019 48.3228503,4.42289013 C48.4133493,4.55832006 48.5003981,4.69587314 48.5839968,4.83554936 C48.6678609,4.97525212 48.7481423,5.11693206 48.8248408,5.26058917 C48.9015393,5.40421975 48.9747877,5.54964172 49.044586,5.6968551 C49.1141189,5.84409501 49.180069,5.99295382 49.2424363,6.14343153 C49.3048036,6.29390924 49.3634554,6.44582006 49.4183917,6.59916401 C49.4730626,6.75250796 49.5241507,6.90711253 49.5716561,7.06297771 C49.618896,7.21881635 49.6622877,7.37572983 49.7018312,7.53371815 C49.7413747,7.69170648 49.7770701,7.85057059 49.8089172,8.01031051 C49.8404989,8.17005042 49.8682325,8.33048036 49.8921178,8.49160032 C49.9160032,8.65269374 49.9360403,8.8142914 49.9522293,8.97639331 C49.9681529,9.13846868 49.9800955,9.30084926 49.9880573,9.46353503 C49.9960191,9.62619427 50,9.78895966 50,9.95183121 L50,40.0481688 C50,40.21112 49.9960191,40.3739384 49.9880573,40.5366242 C49.9800955,40.69931 49.9681529,40.8615977 49.9522293,41.0234873 C49.9360403,41.1856423 49.9160032,41.3472665 49.8921178,41.5083599 C49.8682325,41.6694533 49.8404989,41.8298832 49.8089172,41.9896497 C49.7770701,42.1494161 49.7413747,42.3082537 49.7018312,42.4661624 C49.6622877,42.6243365 49.618896,42.7813163 49.5716561,42.9371019 C49.5241507,43.0928875 49.4730626,43.2474788 49.4183917,43.4008758 C49.3634554,43.5542728 49.3048036,43.7062102 49.2424363,43.8566879 C49.180069,44.0071656 49.1141189,44.1559183 49.044586,44.3029459 C48.9747877,44.4502389 48.9015393,44.5956741 48.8248408,44.7392516 C48.7481423,44.8830945 48.6678609,45.0248142 48.5839968,45.1644108 C48.5003981,45.3040074 48.4133493,45.4416136 48.3228503,45.5772293 C48.2323514,45.7125796 48.138535,45.8456741 48.0414013,45.9765127 C47.9445329,46.1073514 47.8443471,46.2356688 47.7408439,46.361465 C47.6376062,46.4875265 47.5313163,46.6108015 47.4219745,46.7312898 C47.3126327,46.8520435 47.2003715,46.9700106 47.0851911,47.0851911 C46.9700106,47.2003715 46.8520435,47.3126327 46.7312898,47.4219745 C46.6108015,47.5313163 46.4875265,47.6376062 46.361465,47.7408439 C46.2356688,47.8443471 46.1073514,47.9445329 45.9765127,48.0414013 C45.8456741,48.138535 45.7125796,48.2323514 45.5772293,48.3228503 C45.4416136,48.4133493 45.3040074,48.5003981 45.1644108,48.5839968 C45.0248142,48.6678609 44.8830945,48.7481423 44.7392516,48.8248408 C44.5956741,48.9015393 44.4502389,48.9747877 44.3029459,49.044586 C44.1559183,49.1141189 44.0071656,49.180069 43.8566879,49.2424363 C43.7062102,49.3048036 43.5542728,49.3634554 43.4008758,49.4183917 C43.2474788,49.4730626 43.0928875,49.5241507 42.9371019,49.5716561 C42.7813163,49.618896 42.6243365,49.6622877 42.4661624,49.7018312 C42.3082537,49.7413747 42.1494161,49.7770701 41.9896497,49.8089172 C41.8298832,49.8404989 41.6694533,49.8682325 41.5083599,49.8921178 C41.3472665,49.9160032 41.1856423,49.9360403 41.0234873,49.9522293 C40.8615977,49.9681529 40.69931,49.9800955 40.5366242,49.9880573 C40.3739384,49.9960191 40.21112,50 40.0481688,50 L9.95183121,50 C9.78895966,50 9.62619427,49.9960191 9.46353503,49.9880573 C9.30084926,49.9800955 9.13846868,49.9681529 8.97639331,49.9522293 C8.8142914,49.9360403 8.65269374,49.9160032 8.49160032,49.8921178 C8.33048036,49.8682325 8.17005042,49.8404989 8.01031051,49.8089172 C7.85057059,49.7770701 7.69170648,49.7413747 7.53371815,49.7018312 C7.37572983,49.6622877 7.21881635,49.618896 7.06297771,49.5716561 C6.90711253,49.5241507 6.75250796,49.4730626 6.59916401,49.4183917 C6.44582006,49.3634554 6.29390924,49.3048036 6.14343153,49.2424363 C5.99295382,49.180069 5.84409501,49.1141189 5.6968551,49.044586 C5.54964172,48.9747877 5.40421975,48.9015393 5.26058917,48.8248408 C5.11693206,48.7481423 4.97525212,48.6678609 4.83554936,48.5839968 C4.69587314,48.5003981 4.55832006,48.4133493 4.42289013,48.3228503 C4.28746019,48.2323514 4.15433917,48.138535 4.02352707,48.0414013 C3.89271231,47.9445329 3.7643551,47.8443471 3.63845541,47.7408439 C3.51255573,47.6376062 3.38926752,47.5313163 3.26859076,47.4219745 C3.14791136,47.3126327 3.02998938,47.2003715 2.91482484,47.0851911 C2.79965764,46.9700106 2.68738588,46.8520435 2.57800955,46.7312898 C2.46863323,46.6108015 2.3622837,46.4875265 2.25896099,46.361465 C2.15563827,46.2356688 2.05546576,46.1073514 1.95844347,45.9765127 C1.86142383,45.8456741 1.76767118,45.7125796 1.67718551,45.5772293 C1.58669984,45.4416136 1.4995913,45.3040074 1.41585987,45.1644108 C1.33212845,45.0248142 1.251875,44.8830945 1.17509952,44.7392516 C1.09832404,44.5956741 1.0251181,44.4502389 0.955481688,44.3029459 C0.885845276,44.1559183 0.81986465,44.0071656 0.757539809,43.8566879 C0.695212314,43.7062102 0.636613588,43.5542728 0.581743631,43.4008758 C0.526873673,43.2474788 0.475800159,43.0928875 0.428523089,42.9371019 C0.381244161,42.7813163 0.337817808,42.6243365 0.298244029,42.4661624 C0.258669984,42.3082537 0.222995886,42.1494161 0.191221736,41.9896497 C0.159447585,41.8298832 0.131611465,41.6694533 0.107713376,41.5083599 C0.083815552,41.3472665 0.0638846868,41.1856423 0.0479207803,41.0234873 C0.0319568206,40.8615977 0.019979034,40.69931 0.0119874204,40.5366242 C0.00399580679,40.3739384 0,40.21112 0,40.0481688 L0,9.95183121 C0,9.78895966 0.00399580679,9.62619427 0.0119874204,9.46353503 C0.019979034,9.30084926 0.0319568206,9.13846868 0.0479207803,8.97639331 C0.0638846868,8.8142914 0.083815552,8.65269374 0.107713376,8.49160032 C0.131611465,8.33048036 0.159447585,8.17005042 0.191221736,8.01031051 C0.222995886,7.85057059 0.258669984,7.69170648 0.298244029,7.53371815 C0.337817808,7.37572983 0.381244161,7.21881635 0.428523089,7.06297771 C0.475800159,6.90711253 0.526873673,6.75250796 0.581743631,6.59916401 C0.636613588,6.44582006 0.695212314,6.29390924 0.757539809,6.14343153 C0.81986465,5.99295382 0.885845276,5.84409501 0.955481688,5.6968551 C1.0251181,5.54964172 1.09832404,5.40421975 1.17509952,5.26058917 C1.251875,5.11693206 1.33212845,4.97525212 1.41585987,4.83554936 C1.4995913,4.69587314 1.58669984,4.55832006 1.67718551,4.42289013 C1.76767118,4.28746019 1.86142383,4.15433917 1.95844347,4.02352707 C2.05546576,3.89271231 2.15563827,3.7643551 2.25896099,3.63845541 C2.3622837,3.51255573 2.46863323,3.38926752 2.57800955,3.26859076 C2.68738588,3.14791136 2.79965764,3.02998938 2.91482484,2.91482484 C3.02998938,2.79965764 3.14791136,2.68738588 3.26859076,2.57800955 C3.38926752,2.46863323 3.51255573,2.3622837 3.63845541,2.25896099 C3.7643551,2.15563827 3.89271231,2.05546576 4.02352707,1.95844347 C4.15433917,1.86142383 4.28746019,1.76767118 4.42289013,1.67718551 C4.55832006,1.58669984 4.69587314,1.4995913 4.83554936,1.41585987 C4.97525212,1.33212845 5.11693206,1.251875 5.26058917,1.17509952 C5.40421975,1.09832404 5.54964172,1.0251181 5.6968551,0.955481688 C5.84409501,0.885845276 5.99295382,0.81986465 6.14343153,0.757539809 C6.29390924,0.695212314 6.44582006,0.636613588 6.59916401,0.581743631 C6.75250796,0.526873673 6.90711253,0.475800159 7.06297771,0.428523089 C7.21881635,0.381244161 7.37572983,0.337817808 7.53371815,0.298244029 C7.69170648,0.258669984 7.85057059,0.222995886 8.01031051,0.191221736 C8.17005042,0.159447585 8.33048036,0.131611465 8.49160032,0.107713376 C8.65269374,0.083815552 8.8142914,0.0638846868 8.97639331,0.0479207803 C9.13846868,0.0319568206 9.30084926,0.019979034 9.46353503,0.0119874204 C9.62619427,0.00399580679 9.78895966,0 9.95183121,0 L9.95183121,0 Z M39.9960191,36.3305334 L36.3995223,39.9171975 C35.7428344,40.5736465 34.6719347,40.5736465 34.0152468,39.9171975 L25.0438296,30.9456608 L16.0724124,39.9171975 C15.4157245,40.5736465 14.344785,40.5736465 13.6880971,39.9068471 L10.0914809,36.3305334 C9.44486465,35.6637341 9.44486465,34.6029061 10.0914809,33.9361067 L19.0628981,24.9646895 L10.1015525,16.0033838 C9.44486465,15.3365844 9.44486465,14.2656847 10.1015525,13.6089968 L13.6880971,10.0224522 C14.344785,9.35565287 15.425836,9.35565287 16.0825239,10.0224522 L25.0438296,18.983758 L34.0152468,10.0224522 C34.6719347,9.35565287 35.7529459,9.35565287 36.3995223,10.0224522 L39.9960191,13.5988854 C40.6528662,14.2656847 40.6528662,15.3365844 39.9960191,16.0033838 L31.0247611,24.9646895 L39.9960191,33.9361067 C40.642914,34.6029061 40.642914,35.6637341 39.9960191,36.3305334 L39.9960191,36.3305334 Z" id="Rectangle-32-Difference-3"></path>
                </g>
                <g id="newuser" transform="translate(0.000000, 2.000000)" fill="#C3C3C3">
                    <path d="M25.0003981,0 L24.9996019,0 C24.5904724,0 24.1815817,0.010037699 23.7729299,0.0301130971 C23.3642781,0.0501884421 22.9563694,0.0802773355 22.5492038,0.120379777 C22.1420382,0.160482219 21.7361067,0.210549894 21.3314092,0.270582803 C20.9266852,0.330615711 20.5236863,0.400542197 20.1224124,0.480362261 C19.7211385,0.56017914 19.3220674,0.649794321 18.925199,0.749207803 C18.5283307,0.848618631 18.1341295,0.957707006 17.7425955,1.07647293 C17.3510881,1.19524151 16.9627123,1.32354167 16.5774682,1.46137341 C16.1922505,1.5992078 15.8106555,1.74641056 15.4326831,1.90298169 C15.0546842,2.05955016 14.680759,2.22529989 14.3109076,2.40023089 C13.9410297,2.57515924 13.57569,2.75905653 13.2148885,2.95192277 C12.8540605,3.14478636 12.4981821,3.346388 12.1472532,3.55672771 C11.7963243,3.76706741 11.4507564,3.98588376 11.1105494,4.21317675 C10.7703689,4.44048567 10.435974,4.67600849 10.1073646,4.91974522 C9.77872877,5.16345541 9.45627654,5.41508758 9.14000796,5.67464172 C8.82373938,5.93419586 8.51403928,6.2013535 8.21090764,6.47611465 C7.90774947,6.7508758 7.61151805,7.0329087 7.32221338,7.32221338 C7.0329087,7.61151805 6.7508758,7.90774947 6.47611465,8.21090764 C6.2013535,8.51403928 5.93419586,8.82373938 5.67464172,9.14000796 C5.41508758,9.45627654 5.16345541,9.77872877 4.91974522,10.1073646 C4.67600849,10.435974 4.44048567,10.7703689 4.21317675,11.1105494 C3.98588376,11.4507564 3.76706741,11.7963243 3.55672771,12.1472532 C3.346388,12.4981821 3.14478636,12.8540605 2.95192277,13.2148885 C2.75905653,13.57569 2.57515924,13.9410297 2.40023089,14.3109076 C2.22529989,14.680759 2.05955016,15.0546842 1.90298169,15.4326831 C1.74641056,15.8106555 1.5992078,16.1922638 1.46137341,16.577508 C1.32353901,16.9627256 1.19523885,17.3510881 1.07647293,17.7425955 C0.957707006,18.1341295 0.848618631,18.5283307 0.749207803,18.925199 C0.649794321,19.3220674 0.560177813,19.7211385 0.48035828,20.1224124 C0.40054087,20.5236863 0.330615711,20.9266852 0.270582803,21.3314092 C0.210549894,21.7361067 0.160482219,22.1420382 0.120379777,22.5492038 C0.0802773355,22.9563694 0.0501884421,23.3642781 0.0301130971,23.7729299 C0.010037699,24.1815817 0,24.5904724 0,24.9996019 L0,25.0003981 C0,25.4095276 0.010037699,25.8184183 0.0301130971,26.2270701 C0.0501884421,26.6357219 0.0802773355,27.0436306 0.120379777,27.4507962 C0.160482219,27.8579618 0.210549894,28.2638933 0.270582803,28.6685908 C0.330615711,29.0733148 0.400542197,29.4763137 0.480362261,29.8775876 C0.56017914,30.2788615 0.649794321,30.6779326 0.749207803,31.074801 C0.848618631,31.4716693 0.957707006,31.8658705 1.07647293,32.2574045 C1.19524151,32.6489119 1.32354167,33.0372744 1.46137341,33.422492 C1.5992078,33.8077097 1.74641056,34.1893179 1.90298169,34.5673169 C2.05955016,34.9453158 2.22529989,35.319241 2.40023089,35.6890924 C2.57515924,36.0589437 2.75905653,36.4242834 2.95192277,36.7851115 C3.14478636,37.1459395 3.346388,37.5018179 3.55672771,37.8527468 C3.76706741,38.2036757 3.98588376,38.5492304 4.21317675,38.8894108 C4.44048567,39.2296178 4.67600849,39.5639862 4.91974522,39.8925159 C5.16345541,40.2213376 5.41508758,40.5437898 5.67464172,40.8598726 C5.93419586,41.1762208 6.2013535,41.4859342 6.47611465,41.7890127 C6.7508758,42.0920913 7.0329087,42.3884023 7.32221338,42.6779459 C7.61151805,42.967224 7.90774947,43.2492038 8.21090764,43.5238854 C8.51403928,43.7985669 8.82373938,44.0656847 9.14000796,44.3252389 C9.45627654,44.584793 9.77872877,44.836518 10.1073646,45.080414 C10.435974,45.3240446 10.7703689,45.559448 11.1105494,45.7866242 C11.4507564,46.0140658 11.7963243,46.2328822 12.1472532,46.4430732 C12.4981821,46.6535297 12.8540605,46.8552282 13.2148885,47.0481688 C13.57569,47.2408439 13.9410297,47.4247611 14.3109076,47.5999204 C14.680759,47.7748142 15.0546842,47.940552 15.4326831,48.0971338 C15.8106555,48.2537155 16.1922638,48.4008758 16.577508,48.5386146 C16.9627256,48.6763535 17.3510881,48.8046709 17.7425955,48.9235669 C18.1341295,49.0421975 18.5283307,49.1512739 18.925199,49.2507962 C19.3220674,49.3503185 19.7211385,49.4398885 20.1224124,49.5195064 C20.5236863,49.5993896 20.9266852,49.6693206 21.3314092,49.7292994 C21.7361067,49.7892781 22.1420382,49.8394374 22.5492038,49.8797771 C22.9563694,49.9198514 23.3642781,49.9498408 23.7729299,49.9697452 C24.1815817,49.9899151 24.5904724,50 24.9996019,50 L25.0003981,50 C25.4095276,50 25.8184183,49.9899151 26.2270701,49.9697452 C26.6357219,49.9498408 27.0436306,49.9198514 27.4507962,49.8797771 C27.8579618,49.8394374 28.2638933,49.7892781 28.6685908,49.7292994 C29.0733148,49.6693206 29.4763137,49.5993896 29.8775876,49.5195064 C30.2788615,49.4398885 30.6779326,49.3503185 31.074801,49.2507962 C31.4716693,49.1512739 31.8658705,49.0421975 32.2574045,48.9235669 C32.6489119,48.8046709 33.0372744,48.6763535 33.422492,48.5386146 C33.8077097,48.4008758 34.1893179,48.2537155 34.5673169,48.0971338 C34.9453158,47.940552 35.319241,47.7748142 35.6890924,47.5999204 C36.0589437,47.4247611 36.4242834,47.2408439 36.7851115,47.0481688 C37.1459395,46.8552282 37.5018179,46.6535297 37.8527468,46.4430732 C38.2036757,46.2328822 38.5492304,46.0140658 38.8894108,45.7866242 C39.2296178,45.559448 39.5639862,45.3240446 39.8925159,45.080414 C40.2213376,44.836518 40.5437898,44.584793 40.8598726,44.3252389 C41.1762208,44.0656847 41.4859342,43.7985669 41.7890127,43.5238854 C42.0920913,43.2492038 42.3884023,42.967224 42.6779459,42.6779459 C42.967224,42.3884023 43.2492038,42.0920913 43.5238854,41.7890127 C43.7985669,41.4859342 44.0656847,41.1762208 44.3252389,40.8598726 C44.584793,40.5437898 44.836518,40.2213376 45.080414,39.8925159 C45.3240446,39.5639862 45.559448,39.2296178 45.7866242,38.8894108 C46.0140658,38.5492304 46.2328822,38.2036757 46.4430732,37.8527468 C46.6535297,37.5018179 46.8552282,37.1459395 47.0481688,36.7851115 C47.2408439,36.4242834 47.4247611,36.0589437 47.5999204,35.6890924 C47.7748142,35.319241 47.940552,34.9453158 48.0971338,34.5673169 C48.2537155,34.1893179 48.4008758,33.8077097 48.5386146,33.422492 C48.6763535,33.0372744 48.8046709,32.6489119 48.9235669,32.2574045 C49.0421975,31.8658705 49.1512739,31.4716693 49.2507962,31.074801 C49.3503185,30.6779326 49.4398885,30.2788615 49.5195064,29.8775876 C49.5993896,29.4763137 49.6693206,29.0733148 49.7292994,28.6685908 C49.7892781,28.2638933 49.8394374,27.8579618 49.8797771,27.4507962 C49.9198514,27.0436306 49.9498408,26.6357219 49.9697452,26.2270701 C49.9899151,25.8184183 50,25.4095276 50,25.0003981 L50,24.9996019 C50,24.5904724 49.9899151,24.1815817 49.9697452,23.7729299 C49.9498408,23.3642781 49.9198514,22.9563694 49.8797771,22.5492038 C49.8394374,22.1420382 49.7892781,21.7361067 49.7292994,21.3314092 C49.6693206,20.9266852 49.5993896,20.5236863 49.5195064,20.1224124 C49.4398885,19.7211385 49.3503185,19.3220674 49.2507962,18.925199 C49.1512739,18.5283307 49.0421975,18.1341295 48.9235669,17.7425955 C48.8046709,17.3510881 48.6763535,16.9627256 48.5386146,16.577508 C48.4008758,16.1922638 48.2537155,15.8106555 48.0971338,15.4326831 C47.940552,15.0546842 47.7748142,14.680759 47.5999204,14.3109076 C47.4247611,13.9410297 47.2408439,13.57569 47.0481688,13.2148885 C46.8552282,12.8540605 46.6535297,12.4981821 46.4430732,12.1472532 C46.2328822,11.7963243 46.0140658,11.4507564 45.7866242,11.1105494 C45.559448,10.7703689 45.3240446,10.435974 45.080414,10.1073646 C44.836518,9.77872877 44.584793,9.45627654 44.3252389,9.14000796 C44.0656847,8.82373938 43.7985669,8.51403928 43.5238854,8.21090764 C43.2492038,7.90774947 42.967224,7.61151805 42.6779459,7.32221338 C42.3884023,7.0329087 42.0920913,6.7508758 41.7890127,6.47611465 C41.4859342,6.2013535 41.1762208,5.93419586 40.8598726,5.67464172 C40.5437898,5.41508758 40.2213376,5.16345541 39.8925159,4.91974522 C39.5639862,4.67600849 39.2296178,4.44048567 38.8894108,4.21317675 C38.5492304,3.98588376 38.2036757,3.76706741 37.8527468,3.55672771 C37.5018179,3.346388 37.1459395,3.14478636 36.7851115,2.95192277 C36.4242834,2.75905653 36.0589437,2.57515924 35.6890924,2.40023089 C35.319241,2.22529989 34.9453158,2.05955016 34.5673169,1.90298169 C34.1893179,1.74641056 33.8077097,1.5992078 33.422492,1.46137341 C33.0372744,1.32354167 32.6489119,1.19524151 32.2574045,1.07647293 C31.8658705,0.957707006 31.4716693,0.848618631 31.074801,0.749207803 C30.6779326,0.649794321 30.2788615,0.56017914 29.8775876,0.480362261 C29.4763137,0.400542197 29.0733148,0.330615711 28.6685908,0.270582803 C28.2638933,0.210549894 27.8579618,0.160482219 27.4507962,0.120379777 C27.0436306,0.0802773355 26.6357219,0.0501884421 26.2270701,0.0301130971 C25.8184183,0.010037699 25.4095276,0 25.0003981,0 Z M38.416043,19.9044586 L11.5044188,19.9044586 C11.4718551,19.9044586 11.4393179,19.9052548 11.4068073,19.9068471 C11.3742702,19.9084395 11.3417994,19.9108413 11.3093949,19.9140525 C11.2769639,19.9172373 11.2446391,19.9212182 11.2124204,19.9259952 C11.1802017,19.9307723 11.148129,19.9363455 11.1162022,19.942715 C11.0842489,19.9490579 11.0524814,19.9561837 11.0208997,19.9640924 C10.9892914,19.9720011 10.9579087,19.9806927 10.9267516,19.9901672 C10.8955945,19.9996152 10.8646762,20.0098195 10.8339968,20.0207803 C10.8033439,20.0317675 10.7729697,20.0434846 10.7428742,20.0559315 C10.7127787,20.068405 10.6830149,20.0816083 10.6535828,20.0955414 C10.6241507,20.109448 10.5950637,20.1240844 10.5663217,20.1394506 C10.5376062,20.1547903 10.5092755,20.1708333 10.4813296,20.1875796 C10.4534103,20.2043259 10.4259023,20.2217489 10.3988057,20.2398487 C10.3717357,20.2579485 10.3451168,20.2766985 10.318949,20.2960987 C10.2928079,20.3154989 10.2671444,20.3355228 10.2419586,20.3561704 C10.2167728,20.3768445 10.1921178,20.3981157 10.1679936,20.4199841 C10.1438694,20.4418524 10.1202893,20.4643047 10.0972532,20.4873408 C10.0742171,20.5103769 10.0517649,20.533957 10.0298965,20.5580812 C10.0080281,20.5822054 9.98677017,20.6068604 9.96612261,20.6320462 C9.94544851,20.6572054 9.92541136,20.6828689 9.90601115,20.7090366 C9.88661093,20.7352044 9.86786093,20.7618232 9.84976115,20.7888933 C9.83166136,20.8159634 9.81425159,20.8434713 9.79753185,20.8714172 C9.78078556,20.8993631 9.7647293,20.9276937 9.74936306,20.9564092 C9.73402335,20.9851247 9.71938694,21.0141985 9.70545382,21.0436306 C9.6915207,21.0730892 9.67833068,21.1028662 9.66588376,21.1329618 C9.6534103,21.1630308 9.64169321,21.193405 9.63073248,21.2240844 C9.61974522,21.2547373 9.6095276,21.2856555 9.60007962,21.3168392 C9.59063163,21.3479963 9.58195329,21.3793657 9.57404459,21.4109475 C9.56610934,21.4425557 9.55897028,21.4743232 9.55262739,21.50625 C9.5462845,21.5382033 9.54072452,21.5702893 9.53594745,21.602508 C9.53114384,21.6347266 9.52714968,21.6670382 9.52396497,21.6994427 C9.52078025,21.7318471 9.51839172,21.7643179 9.51679936,21.7968551 C9.51518047,21.8293923 9.51437102,21.8619427 9.51437102,21.8945064 L9.51437102,27.468551 C9.51437102,27.5011146 9.51518047,27.5336651 9.51679936,27.5662022 C9.51839172,27.5987394 9.52078025,27.6312102 9.52396497,27.6636146 C9.52714968,27.6960191 9.53114384,27.7283307 9.53594745,27.7605494 C9.54072452,27.792768 9.5462845,27.8248408 9.55262739,27.8567675 C9.55897028,27.8887208 9.56610934,27.9205016 9.57404459,27.9521099 C9.58195329,27.9836916 9.59063163,28.015061 9.60007962,28.0462182 C9.6095276,28.0774018 9.61974522,28.1083201 9.63073248,28.1389729 C9.64169321,28.1696523 9.6534103,28.2000265 9.66588376,28.2300955 C9.67833068,28.2601911 9.6915207,28.2899549 9.70545382,28.3193869 C9.71938694,28.3488455 9.73402335,28.3779326 9.74936306,28.4066481 C9.7647293,28.4353636 9.78078556,28.4636943 9.79753185,28.4916401 C9.81425159,28.519586 9.83166136,28.5470939 9.84976115,28.574164 C9.86786093,28.6012341 9.88661093,28.627853 9.90601115,28.6540207 C9.92541136,28.6801884 9.94544851,28.7058519 9.96612261,28.7310111 C9.98677017,28.7561969 10.0080281,28.7808519 10.0298965,28.8049761 C10.0517649,28.8291003 10.0742171,28.8526805 10.0972532,28.8757166 C10.1202893,28.8987527 10.1438694,28.9212049 10.1679936,28.9430732 C10.1921178,28.9649416 10.2167728,28.9862128 10.2419586,29.0068869 C10.2671444,29.0275345 10.2928079,29.0475584 10.318949,29.0669586 C10.3451168,29.0863588 10.3717357,29.1051088 10.3988057,29.1232086 C10.4259023,29.1413084 10.4534103,29.1587314 10.4813296,29.1754777 C10.5092755,29.192224 10.5376062,29.208267 10.5663217,29.2236067 C10.5950637,29.2389729 10.6241507,29.2536093 10.6535828,29.2675159 C10.6830149,29.281449 10.7127787,29.2946523 10.7428742,29.3071258 C10.7729697,29.3195727 10.8033439,29.3312898 10.8339968,29.3422771 C10.8646762,29.3532378 10.8955945,29.3634421 10.9267516,29.3728901 C10.9579087,29.3823646 10.9892914,29.3910563 11.0208997,29.398965 C11.0524814,29.4068737 11.0842489,29.4139995 11.1162022,29.4203424 C11.148129,29.4267118 11.1802017,29.432285 11.2124204,29.4370621 C11.2446391,29.4418392 11.2769639,29.4458201 11.3093949,29.4490048 C11.3417994,29.4521895 11.3742702,29.4545913 11.4068073,29.4562102 C11.4393179,29.4578025 11.4718551,29.4585987 11.5044188,29.4585987 L38.416043,29.4585987 C38.4486067,29.4585987 38.4811571,29.4578025 38.5136943,29.4562102 C38.5462314,29.4545913 38.5787022,29.4521895 38.6111067,29.4490048 C38.6435111,29.4458201 38.6758227,29.4418392 38.7080414,29.4370621 C38.7402601,29.432285 38.7723461,29.4267118 38.8042994,29.4203424 C38.8362261,29.4139995 38.8679936,29.4068737 38.8996019,29.398965 C38.9311837,29.3910563 38.9625663,29.3823646 38.99375,29.3728901 C39.0249071,29.3634421 39.0558121,29.3532378 39.086465,29.3422771 C39.1171444,29.3312898 39.1475186,29.3195727 39.1775876,29.3071258 C39.2076831,29.2946523 39.2374602,29.281449 39.2669188,29.2675159 C39.2963508,29.2536093 39.3254246,29.2389729 39.3541401,29.2236067 C39.3828822,29.208267 39.4112128,29.192224 39.4391322,29.1754777 C39.467078,29.1587314 39.494586,29.1413084 39.5216561,29.1232086 C39.5487261,29.1051088 39.575345,29.0863588 39.6015127,29.0669586 C39.6276805,29.0475584 39.6533572,29.0275345 39.678543,29.0068869 C39.7037022,28.9862128 39.7283439,28.9649416 39.7524682,28.9430732 C39.7766189,28.9212049 39.8002123,28.8987527 39.8232484,28.8757166 C39.8463376,28.8526805 39.8687633,28.8291003 39.8905255,28.8049761 C39.9125531,28.7808519 39.9337845,28.7561969 39.9542197,28.7310111 C39.9749204,28.7058519 39.9949575,28.6801884 40.0143312,28.6540207 C40.0337049,28.627853 40.0525478,28.6012341 40.0708599,28.574164 C40.0889066,28.5470939 40.1062898,28.519586 40.1230096,28.4916401 C40.1397293,28.4636943 40.1557856,28.4353636 40.1711783,28.4066481 C40.1865711,28.3779326 40.2011677,28.3488455 40.2149682,28.3193869 C40.229034,28.2899549 40.2423036,28.2601911 40.2547771,28.2300955 C40.2672505,28.2000265 40.2789278,28.1696523 40.2898089,28.1389729 C40.30069,28.1083201 40.3109076,28.0774018 40.3204618,28.0462182 C40.3297505,28.015061 40.3383758,27.9836916 40.3463376,27.9521099 C40.3542994,27.9205016 40.361465,27.8887208 40.3678344,27.8567675 C40.3742038,27.8248408 40.3797771,27.792768 40.3845541,27.7605494 C40.3893312,27.7283307 40.3933121,27.6960191 40.3964968,27.6636146 C40.3996815,27.6312102 40.4020701,27.5987394 40.4036624,27.5662022 C40.4052548,27.5336651 40.406051,27.5011146 40.406051,27.468551 L40.406051,21.8945064 C40.406051,21.8619427 40.4052548,21.8293923 40.4036624,21.7968551 C40.4020701,21.7643179 40.3996815,21.7318471 40.3964968,21.6994427 C40.3933121,21.6670382 40.3893312,21.6347266 40.3845541,21.602508 C40.3797771,21.5702893 40.3742038,21.5382033 40.3678344,21.50625 C40.361465,21.4743232 40.3542994,21.4425557 40.3463376,21.4109475 C40.3383758,21.3793657 40.3297505,21.3479963 40.3204618,21.3168392 C40.3109076,21.2856555 40.30069,21.2547373 40.2898089,21.2240844 C40.2789278,21.193405 40.2672505,21.1630308 40.2547771,21.1329618 C40.2423036,21.1028662 40.229034,21.0730892 40.2149682,21.0436306 C40.2011677,21.0141985 40.1865711,20.9851247 40.1711783,20.9564092 C40.1557856,20.9276937 40.1397293,20.8993631 40.1230096,20.8714172 C40.1062898,20.8434713 40.0889066,20.8159634 40.0708599,20.7888933 C40.0525478,20.7618232 40.0337049,20.7352044 40.0143312,20.7090366 C39.9949575,20.6828689 39.9749204,20.6572054 39.9542197,20.6320462 C39.9337845,20.6068604 39.9125531,20.5822054 39.8905255,20.5580812 C39.8687633,20.533957 39.8463376,20.5103769 39.8232484,20.4873408 C39.8002123,20.4643047 39.7766189,20.4418524 39.7524682,20.4199841 C39.7283439,20.3981157 39.7037022,20.3768445 39.678543,20.3561704 C39.6533572,20.3355228 39.6276805,20.3154989 39.6015127,20.2960987 C39.575345,20.2766985 39.5487261,20.2579485 39.5216561,20.2398487 C39.494586,20.2217489 39.467078,20.2043259 39.4391322,20.1875796 C39.4112128,20.1708333 39.3828822,20.1547903 39.3541401,20.1394506 C39.3254246,20.1240844 39.2963508,20.109448 39.2669188,20.0955414 C39.2374602,20.0816083 39.2076831,20.068405 39.1775876,20.0559315 C39.1475186,20.0434846 39.1171444,20.0317675 39.086465,20.0207803 C39.0558121,20.0098195 39.0249071,19.9996152 38.99375,19.9901672 C38.9625663,19.9806927 38.9311837,19.9720011 38.8996019,19.9640924 C38.8679936,19.9561837 38.8362261,19.9490579 38.8042994,19.942715 C38.7723461,19.9363455 38.7402601,19.9307723 38.7080414,19.9259952 C38.6758227,19.9212182 38.6435111,19.9172373 38.6111067,19.9140525 C38.5787022,19.9108413 38.5462314,19.9084395 38.5136943,19.9068471 C38.4811571,19.9052548 38.4486067,19.9044586 38.416043,19.9044586 Z" id="Rectangle-32-Difference-4-Difference"></path>
                </g>
                <g id="safe" transform="translate(64.000000, 0.000000)" fill="#30D158">
                    <path d="M25.0003981,0 L24.9996019,0 C24.5904724,0 24.1815817,0.010037699 23.7729299,0.0301130971 C23.3642781,0.0501884421 22.9563694,0.0802773355 22.5492038,0.120379777 C22.1420382,0.160482219 21.7361067,0.210549894 21.3314092,0.270582803 C20.9266852,0.330615711 20.5236863,0.400542197 20.1224124,0.480362261 C19.7211385,0.56017914 19.3220674,0.649794321 18.925199,0.749207803 C18.5283307,0.848618631 18.1341295,0.957707006 17.7425955,1.07647293 C17.3510881,1.19524151 16.9627123,1.32354167 16.5774682,1.46137341 C16.1922505,1.5992078 15.8106555,1.74641056 15.4326831,1.90298169 C15.0546842,2.05955016 14.680759,2.22529989 14.3109076,2.40023089 C13.9410297,2.57515924 13.57569,2.75905653 13.2148885,2.95192277 C12.8540605,3.14478636 12.4981821,3.346388 12.1472532,3.55672771 C11.7963243,3.76706741 11.4507564,3.98588376 11.1105494,4.21317675 C10.7703689,4.44048567 10.435974,4.67600849 10.1073646,4.91974522 C9.77872877,5.16345541 9.45627654,5.41508758 9.14000796,5.67464172 C8.82373938,5.93419586 8.51403928,6.2013535 8.21090764,6.47611465 C7.90774947,6.7508758 7.61151805,7.0329087 7.32221338,7.32221338 C7.0329087,7.61151805 6.7508758,7.90774947 6.47611465,8.21090764 C6.2013535,8.51403928 5.93419586,8.82373938 5.67464172,9.14000796 C5.41508758,9.45627654 5.16345541,9.77872877 4.91974522,10.1073646 C4.67600849,10.435974 4.44048567,10.7703689 4.21317675,11.1105494 C3.98588376,11.4507564 3.76706741,11.7963243 3.55672771,12.1472532 C3.346388,12.4981821 3.14478636,12.8540605 2.95192277,13.2148885 C2.75905653,13.57569 2.57515924,13.9410297 2.40023089,14.3109076 C2.22529989,14.680759 2.05955016,15.0546842 1.90298169,15.4326831 C1.74641056,15.8106555 1.5992078,16.1922638 1.46137341,16.577508 C1.32353901,16.9627256 1.19523885,17.3510881 1.07647293,17.7425955 C0.957707006,18.1341295 0.848618631,18.5283307 0.749207803,18.925199 C0.649794321,19.3220674 0.560177813,19.7211385 0.48035828,20.1224124 C0.40054087,20.5236863 0.330615711,20.9266852 0.270582803,21.3314092 C0.210549894,21.7361067 0.160482219,22.1420382 0.120379777,22.5492038 C0.0802773355,22.9563694 0.0501884421,23.3642781 0.0301130971,23.7729299 C0.010037699,24.1815817 0,24.5904724 0,24.9996019 L0,25.0003981 C0,25.4095276 0.010037699,25.8184183 0.0301130971,26.2270701 C0.0501884421,26.6357219 0.0802773355,27.0436306 0.120379777,27.4507962 C0.160482219,27.8579618 0.210549894,28.2638933 0.270582803,28.6685908 C0.330615711,29.0733148 0.400542197,29.4763137 0.480362261,29.8775876 C0.56017914,30.2788615 0.649794321,30.6779326 0.749207803,31.074801 C0.848618631,31.4716693 0.957707006,31.8658705 1.07647293,32.2574045 C1.19524151,32.6489119 1.32354167,33.0372744 1.46137341,33.422492 C1.5992078,33.8077097 1.74641056,34.1893179 1.90298169,34.5673169 C2.05955016,34.9453158 2.22529989,35.319241 2.40023089,35.6890924 C2.57515924,36.0589437 2.75905653,36.4242834 2.95192277,36.7851115 C3.14478636,37.1459395 3.346388,37.5018179 3.55672771,37.8527468 C3.76706741,38.2036757 3.98588376,38.5492304 4.21317675,38.8894108 C4.44048567,39.2296178 4.67600849,39.5639862 4.91974522,39.8925159 C5.16345541,40.2213376 5.41508758,40.5437898 5.67464172,40.8598726 C5.93419586,41.1762208 6.2013535,41.4859342 6.47611465,41.7890127 C6.7508758,42.0920913 7.0329087,42.3884023 7.32221338,42.6779459 C7.61151805,42.967224 7.90774947,43.2492038 8.21090764,43.5238854 C8.51403928,43.7985669 8.82373938,44.0656847 9.14000796,44.3252389 C9.45627654,44.584793 9.77872877,44.836518 10.1073646,45.080414 C10.435974,45.3240446 10.7703689,45.559448 11.1105494,45.7866242 C11.4507564,46.0140658 11.7963243,46.2328822 12.1472532,46.4430732 C12.4981821,46.6535297 12.8540605,46.8552282 13.2148885,47.0481688 C13.57569,47.2408439 13.9410297,47.4247611 14.3109076,47.5999204 C14.680759,47.7748142 15.0546842,47.940552 15.4326831,48.0971338 C15.8106555,48.2537155 16.1922638,48.4008758 16.577508,48.5386146 C16.9627256,48.6763535 17.3510881,48.8046709 17.7425955,48.9235669 C18.1341295,49.0421975 18.5283307,49.1512739 18.925199,49.2507962 C19.3220674,49.3503185 19.7211385,49.4398885 20.1224124,49.5195064 C20.5236863,49.5993896 20.9266852,49.6693206 21.3314092,49.7292994 C21.7361067,49.7892781 22.1420382,49.8394374 22.5492038,49.8797771 C22.9563694,49.9198514 23.3642781,49.9498408 23.7729299,49.9697452 C24.1815817,49.9899151 24.5904724,50 24.9996019,50 L25.0003981,50 C25.4095276,50 25.8184183,49.9899151 26.2270701,49.9697452 C26.6357219,49.9498408 27.0436306,49.9198514 27.4507962,49.8797771 C27.8579618,49.8394374 28.2638933,49.7892781 28.6685908,49.7292994 C29.0733148,49.6693206 29.4763137,49.5993896 29.8775876,49.5195064 C30.2788615,49.4398885 30.6779326,49.3503185 31.074801,49.2507962 C31.4716693,49.1512739 31.8658705,49.0421975 32.2574045,48.9235669 C32.6489119,48.8046709 33.0372744,48.6763535 33.422492,48.5386146 C33.8077097,48.4008758 34.1893179,48.2537155 34.5673169,48.0971338 C34.9453158,47.940552 35.319241,47.7748142 35.6890924,47.5999204 C36.0589437,47.4247611 36.4242834,47.2408439 36.7851115,47.0481688 C37.1459395,46.8552282 37.5018179,46.6535297 37.8527468,46.4430732 C38.2036757,46.2328822 38.5492304,46.0140658 38.8894108,45.7866242 C39.2296178,45.559448 39.5639862,45.3240446 39.8925159,45.080414 C40.2213376,44.836518 40.5437898,44.584793 40.8598726,44.3252389 C41.1762208,44.0656847 41.4859342,43.7985669 41.7890127,43.5238854 C42.0920913,43.2492038 42.3884023,42.967224 42.6779459,42.6779459 C42.967224,42.3884023 43.2492038,42.0920913 43.5238854,41.7890127 C43.7985669,41.4859342 44.0656847,41.1762208 44.3252389,40.8598726 C44.584793,40.5437898 44.836518,40.2213376 45.080414,39.8925159 C45.3240446,39.5639862 45.559448,39.2296178 45.7866242,38.8894108 C46.0140658,38.5492304 46.2328822,38.2036757 46.4430732,37.8527468 C46.6535297,37.5018179 46.8552282,37.1459395 47.0481688,36.7851115 C47.2408439,36.4242834 47.4247611,36.0589437 47.5999204,35.6890924 C47.7748142,35.319241 47.940552,34.9453158 48.0971338,34.5673169 C48.2537155,34.1893179 48.4008758,33.8077097 48.5386146,33.422492 C48.6763535,33.0372744 48.8046709,32.6489119 48.9235669,32.2574045 C49.0421975,31.8658705 49.1512739,31.4716693 49.2507962,31.074801 C49.3503185,30.6779326 49.4398885,30.2788615 49.5195064,29.8775876 C49.5993896,29.4763137 49.6693206,29.0733148 49.7292994,28.6685908 C49.7892781,28.2638933 49.8394374,27.8579618 49.8797771,27.4507962 C49.9198514,27.0436306 49.9498408,26.6357219 49.9697452,26.2270701 C49.9899151,25.8184183 50,25.4095276 50,25.0003981 L50,24.9996019 C50,24.5904724 49.9899151,24.1815817 49.9697452,23.7729299 C49.9498408,23.3642781 49.9198514,22.9563694 49.8797771,22.5492038 C49.8394374,22.1420382 49.7892781,21.7361067 49.7292994,21.3314092 C49.6693206,20.9266852 49.5993896,20.5236863 49.5195064,20.1224124 C49.4398885,19.7211385 49.3503185,19.3220674 49.2507962,18.925199 C49.1512739,18.5283307 49.0421975,18.1341295 48.9235669,17.7425955 C48.8046709,17.3510881 48.6763535,16.9627256 48.5386146,16.577508 C48.4008758,16.1922638 48.2537155,15.8106555 48.0971338,15.4326831 C47.940552,15.0546842 47.7748142,14.680759 47.5999204,14.3109076 C47.4247611,13.9410297 47.2408439,13.57569 47.0481688,13.2148885 C46.8552282,12.8540605 46.6535297,12.4981821 46.4430732,12.1472532 C46.2328822,11.7963243 46.0140658,11.4507564 45.7866242,11.1105494 C45.559448,10.7703689 45.3240446,10.435974 45.080414,10.1073646 C44.836518,9.77872877 44.584793,9.45627654 44.3252389,9.14000796 C44.0656847,8.82373938 43.7985669,8.51403928 43.5238854,8.21090764 C43.2492038,7.90774947 42.967224,7.61151805 42.6779459,7.32221338 C42.3884023,7.0329087 42.0920913,6.7508758 41.7890127,6.47611465 C41.4859342,6.2013535 41.1762208,5.93419586 40.8598726,5.67464172 C40.5437898,5.41508758 40.2213376,5.16345541 39.8925159,4.91974522 C39.5639862,4.67600849 39.2296178,4.44048567 38.8894108,4.21317675 C38.5492304,3.98588376 38.2036757,3.76706741 37.8527468,3.55672771 C37.5018179,3.346388 37.1459395,3.14478636 36.7851115,2.95192277 C36.4242834,2.75905653 36.0589437,2.57515924 35.6890924,2.40023089 C35.319241,2.22529989 34.9453158,2.05955016 34.5673169,1.90298169 C34.1893179,1.74641056 33.8077097,1.5992078 33.422492,1.46137341 C33.0372744,1.32354167 32.6489119,1.19524151 32.2574045,1.07647293 C31.8658705,0.957707006 31.4716693,0.848618631 31.074801,0.749207803 C30.6779326,0.649794321 30.2788615,0.56017914 29.8775876,0.480362261 C29.4763137,0.400542197 29.0733148,0.330615711 28.6685908,0.270582803 C28.2638933,0.210549894 27.8579618,0.160482219 27.4507962,0.120379777 C27.0436306,0.0802773355 26.6357219,0.0501884421 26.2270701,0.0301130971 C25.8184183,0.010037699 25.4095276,0 25.0003981,0 Z M23.9435908,39.175 L40.2985669,15.0563296 C40.8192675,14.2939092 40.6146497,13.2432723 39.861465,12.7318869 L37.0814889,10.8444268 C36.3190685,10.3330414 35.2683917,10.5282643 34.7477309,11.2907245 L21.1728105,31.3183121 L14.9246417,25.0794586 C14.283121,24.4285828 13.2138535,24.4285828 12.5630175,25.0794586 L10.1920382,27.4503981 C9.54120223,28.1012341 9.54120223,29.1705016 10.1920382,29.8213376 L19.7874602,39.426035 C20.3267118,39.9562102 21.163535,40.3746019 21.9259554,40.3746019 C22.6883758,40.3746019 23.4601115,39.8909236 23.9435908,39.175 Z" id="Rectangle-32-Difference"></path>
                </g>
                <g id="potentiallydangerous" transform="translate(128.000000, 0.000000)" fill="#FFCC4D">
                    <path d="M49.7091162,45.2041076 L26.9427742,1.18510471 C26.9198177,1.14071335 26.895375,1.09715887 26.869446,1.05444126 C26.8435171,1.01172631 26.8161816,0.96994817 26.7874394,0.929106847 C26.7586708,0.888262859 26.7285619,0.848452963 26.6971128,0.809677159 C26.6656371,0.770898691 26.6328875,0.733242266 26.5988641,0.696707884 C26.5648407,0.660176168 26.5296097,0.624850449 26.4931711,0.590730727 C26.4567592,0.55661367 26.4192193,0.523782566 26.3805514,0.492237414 C26.3419101,0.460692263 26.3022338,0.430507689 26.2615224,0.401683693 C26.2208111,0.372858898 26.1791708,0.345461577 26.1366017,0.319491729 C26.0940326,0.293521882 26.0506275,0.269039609 26.0063864,0.24604491 C25.9621453,0.223050477 25.9171744,0.201597189 25.8714736,0.181685045 C25.8257994,0.161772635 25.7794883,0.143447876 25.7325402,0.126710769 C25.6855921,0.109973929 25.6381397,0.0948633852 25.5901831,0.0813791389 C25.5422,0.0678948925 25.493832,0.0560686589 25.4450792,0.045900438 C25.3962999,0.0357320039 25.3472419,0.0272451162 25.2979053,0.0204397748 C25.2485421,0.01363446 25.1990196,0.00852649618 25.149338,0.00511588322 C25.0996298,0.00170528708 25.0498685,0 25.0000541,0 C24.9502663,0 24.9005183,0.00170531509 24.8508101,0.0051159232 C24.8011285,0.00852653616 24.751606,0.0136345133 24.7022429,0.0204398548 C24.6529062,0.0272451962 24.6038482,0.0357320573 24.5550689,0.045900438 C24.5062896,0.0560689254 24.4579216,0.067895159 24.409965,0.0813791389 C24.3620084,0.0948633852 24.3145561,0.109974062 24.2676079,0.126711169 C24.2206598,0.143448276 24.1743487,0.161772901 24.1286745,0.181685045 C24.0829737,0.201597189 24.0380028,0.223050611 23.9937617,0.24604531 C23.9495206,0.269039742 23.9061155,0.293522015 23.8635464,0.319492129 C23.8209773,0.345461976 23.779337,0.372859164 23.7386257,0.401683693 C23.6979143,0.430507689 23.658238,0.460692263 23.6195967,0.492237414 C23.5809288,0.523782566 23.5433757,0.55661367 23.5069371,0.590730727 C23.4705252,0.624850449 23.4353074,0.660176168 23.401284,0.696707884 C23.3672606,0.733242266 23.334511,0.770898691 23.3030353,0.809677159 C23.2715862,0.848452963 23.2414773,0.888262859 23.2127087,0.929106847 C23.18394,0.96994817 23.1566045,1.01172631 23.1307021,1.05444126 C23.1047731,1.09715887 23.0803304,1.14071335 23.0573739,1.18510471 L0.291212214,45.2041076 C0.240217652,45.3027195 0.195704132,45.4042632 0.157671654,45.5087385 C0.119639441,45.6129473 0.0883999741,45.7192882 0.0639532535,45.8277614 C0.039506639,45.9362345 0.0220531561,46.0457736 0.0115928047,46.1563789 C0.00113245329,46.2669841 -0.00224900601,46.3777227 0.00144842679,46.4885944 C0.0051458649,46.5997327 0.0158918872,46.7100715 0.0336864936,46.8196106 C0.0514811001,46.9294163 0.0761784716,47.0374897 0.107778608,47.1438306 C0.139378745,47.2504381 0.177622609,47.3545136 0.222510201,47.4560573 C0.267397793,47.5576009 0.31856141,47.655813 0.376001052,47.7506937 C0.433439633,47.8455743 0.496683961,47.9364572 0.565734037,48.0233423 C0.634784114,48.1102274 0.709073057,48.1923151 0.788600868,48.2696055 C0.868131333,48.3466294 0.952247797,48.4184562 1.04095026,48.4850859 C1.12965272,48.5514491 1.22221666,48.6118155 1.31864208,48.6661853 C1.41506484,48.7208217 1.51455953,48.7689283 1.61712615,48.8105052 C1.71969011,48.8520821 1.82448471,48.8869961 1.93150994,48.9152471 C2.03853517,48.9432315 2.14691258,48.9644198 2.25664217,48.9788118 C2.36637176,48.9929373 2.47655517,49 2.5871924,49 L47.4129318,49 C47.5236009,49 47.6337392,48.9929373 47.7433467,48.9788118 C47.8532196,48.9644198 47.9616328,48.9432315 48.0685864,48.9152471 C48.17554,48.8869961 48.2803704,48.8520821 48.3830777,48.8105052 C48.4855196,48.7689283 48.5850421,48.7208217 48.6816454,48.6661853 C48.7779832,48.6118155 48.8704728,48.5514491 48.9591142,48.4850859 C49.0477557,48.4184562 49.1318854,48.3466294 49.2115034,48.2696055 C49.2911215,48.1923151 49.3654317,48.1102274 49.434434,48.0233423 C49.5034363,47.9364572 49.5667326,47.8455743 49.624323,47.7506937 C49.681648,47.655813 49.7327362,47.5576009 49.7775877,47.4560573 C49.8224392,47.3545136 49.8606559,47.2504381 49.8922377,47.1438306 C49.9238196,47.0374897 49.9485011,46.9294163 49.9662825,46.8196106 C49.9840639,46.7100715 49.9948123,46.5997327 49.9985278,46.4885944 C50.0022433,46.3777227 49.9989259,46.2669841 49.9885756,46.1563789 C49.9782252,46.0457736 49.9607092,45.9362345 49.9360277,45.8277614 C49.9116115,45.7192882 49.8804277,45.6129473 49.8424764,45.5087385 C49.8045252,45.4042632 49.7600718,45.3027195 49.7091162,45.2041076 Z M27.9542021,32.62873 C27.9139552,33.3966236 26.4651456,33.3966236 25.016336,33.3966236 C23.5675265,33.3966236 22.1388205,33.3966236 22.0985736,32.62873 L21.5150529,15.0277827 C21.5150529,14.2194715 23.2656945,14.2194715 25.0364794,14.2194715 C26.787121,14.2194715 28.5377625,14.2194715 28.5377625,15.0075539 L27.9542021,32.62873 Z M28.8798813,39.1356371 C28.8798813,41.2774878 27.1694468,43.0357116 25.0364794,43.0357116 C22.8833686,43.0357116 21.172974,41.2774878 21.172974,39.1356371 C21.172974,36.9936264 22.903512,35.2355226 25.0364794,35.2355226 C27.1493433,35.2355226 28.8798813,36.9936264 28.8798813,39.1356371 Z" id="Triangle-Difference"></path>
                </g>
            </g>
        </g>
    </g>
</svg>