<?xml version="1.0" encoding="utf-8"?>
<svg width="416px" height="416px" viewbox="0 0 416 416" version="1.1" xmlns:xlink="http://www.w3.org/1999/xlink" xmlns="http://www.w3.org/2000/svg">
  <defs>
    <linearGradient x1="0.5" y1="0" x2="0.5" y2="1" id="gradient_1">
      <stop offset="0" stop-color="#07B2F6" />
      <stop offset="1" stop-color="#046CEB" />
    </linearGradient>
    <linearGradient x1="0.4999994" y1="0" x2="0.49999884" y2="1" id="gradient_2">
      <stop offset="0" stop-color="#07A6F4" />
      <stop offset="1" stop-color="#0473EC" />
    </linearGradient>
    <linearGradient x1="0.50000536" y1="-0.30568793" x2="0.50000536" y2="1.3056881" id="gradient_3">
      <stop offset="0" stop-color="#07A6F4" />
      <stop offset="1" stop-color="#0474EC" />
    </linearGradient>
    <path d="M0 0L416 0L416 416L0 416L0 0Z" id="path_1" />
    <path d="M0 31.3C0 14.0135 14.0135 0 31.3 0C48.5866 0 62.6001 14.0135 62.6001 31.3C62.6001 48.5866 48.5866 62.6001 31.3 62.6001C14.0135 62.6001 0 48.5866 0 31.3Z" transform="translate(107.005615 104.956665)" id="path_2" />
    <clipPath id="clip_1">
      <use xlink:href="#path_2" />
    </clipPath>
    <clipPath id="mask_1">
      <use xlink:href="#path_1" />
    </clipPath>
  </defs>
  <g id="studiohelperslogocircle-4">
    <path d="M0 0L416 0L416 416L0 416L0 0Z" id="Background" fill="none" fill-rule="evenodd" stroke="none" />
    <g clip-path="url(#mask_1)">
      <g id="Ellipse">
        <path d="M0 207.953C-1.02481e-06 193.784 1.40824 179.818 4.22472 166.054C6.97067 152.635 11.0111 139.619 16.3461 127.005C21.5833 114.623 27.975 102.847 35.5211 91.6775C42.9938 80.6165 51.4561 70.36 60.908 60.908C70.36 51.4561 80.6165 42.9938 91.6775 35.5211C102.847 27.975 114.623 21.5833 127.005 16.3461C139.619 11.0111 152.635 6.97068 166.054 4.22472C179.818 1.40824 193.784 -1.02481e-06 207.953 0C222.122 -1.02481e-06 236.088 1.40824 249.852 4.22471C263.271 6.97065 276.287 11.0111 288.901 16.3461C301.283 21.5833 313.059 27.975 324.229 35.5211C335.29 42.9937 345.546 51.456 354.998 60.908C364.45 70.3599 372.912 80.6164 380.385 91.6775C387.931 102.847 394.323 114.623 399.56 127.005C404.895 139.619 408.935 152.635 411.681 166.054C414.498 179.818 415.906 193.784 415.906 207.953C415.906 222.122 414.498 236.088 411.681 249.852C408.935 263.271 404.895 276.288 399.56 288.901C394.323 301.283 387.931 313.059 380.385 324.229C372.912 335.29 364.45 345.546 354.998 354.998C345.546 364.45 335.29 372.912 324.229 380.385C313.059 387.931 301.283 394.323 288.901 399.56C276.288 404.895 263.271 408.935 249.852 411.681C236.088 414.498 222.122 415.906 207.953 415.906C193.784 415.906 179.818 414.498 166.054 411.681C152.635 408.935 139.618 404.895 127.005 399.56C114.623 394.323 102.847 387.931 91.6775 380.385C80.6166 372.912 70.3602 364.45 60.908 354.998C51.456 345.546 42.9937 335.29 35.5211 324.229C27.975 313.059 21.5833 301.283 16.3461 288.901C11.0111 276.288 6.97067 263.271 4.22472 249.852C1.40824 236.088 -1.02481e-06 222.122 0 207.953L0 207.953ZM20.1485 207.953C20.1485 233.43 25.0667 257.796 34.903 281.052C39.631 292.23 45.4022 302.863 52.2166 312.949C58.9681 322.943 66.6143 332.21 75.1552 340.751C83.6963 349.292 92.9635 356.938 102.957 363.689C113.043 370.504 123.676 376.275 134.854 381.003C158.11 390.839 182.476 395.757 207.953 395.757C233.43 395.757 257.796 390.839 281.052 381.003C292.23 376.275 302.863 370.504 312.949 363.689C322.943 356.938 332.21 349.292 340.751 340.751C349.292 332.21 356.938 322.943 363.689 312.949C370.504 302.863 376.275 292.23 381.003 281.052C390.839 257.796 395.757 233.43 395.757 207.953C395.757 182.476 390.839 158.11 381.003 134.854C376.275 123.676 370.504 113.043 363.689 102.957C356.938 92.9633 349.292 83.6961 340.751 75.1552C332.21 66.6143 322.943 58.9681 312.949 52.2166C302.863 45.4022 292.23 39.631 281.052 34.903C257.796 25.0667 233.43 20.1485 207.953 20.1485C182.476 20.1485 158.11 25.0667 134.854 34.903C123.676 39.631 113.043 45.4022 102.957 52.2166C92.9633 58.9681 83.6962 66.6142 75.1552 75.1552C66.6143 83.6961 58.9681 92.9633 52.2166 102.957C45.4022 113.043 39.631 123.676 34.903 134.854C25.0667 158.11 20.1485 182.476 20.1485 207.953L20.1485 207.953Z" id="Vector" fill="url(#gradient_1)" fill-rule="evenodd" stroke="none" />
        <path d="M0 197.879C0 88.5934 88.5934 0 197.879 0C307.164 0 395.757 88.5934 395.757 197.879C395.757 307.164 307.164 395.757 197.879 395.757C88.5934 395.757 0 307.164 0 197.879L0 197.879Z" transform="translate(10.074265 10.074265)" id="path_1" fill="#181A1D" fill-rule="evenodd" stroke="none" />
      </g>
      <g id="Ellipse-2">
        <path d="M0 207.953C-1.02481e-06 193.784 1.40824 179.818 4.22472 166.054C6.97067 152.635 11.0111 139.619 16.3461 127.005C21.5833 114.623 27.975 102.847 35.5211 91.6775C42.9938 80.6165 51.4561 70.36 60.908 60.908C70.36 51.4561 80.6165 42.9938 91.6775 35.5211C102.847 27.975 114.623 21.5833 127.005 16.3461C139.619 11.0111 152.635 6.97068 166.054 4.22472C179.818 1.40824 193.784 -1.02481e-06 207.953 0C222.122 -1.02481e-06 236.088 1.40824 249.852 4.22471C263.271 6.97065 276.287 11.0111 288.901 16.3461C301.283 21.5833 313.059 27.975 324.229 35.5211C335.29 42.9937 345.546 51.456 354.998 60.908C364.45 70.3599 372.912 80.6164 380.385 91.6775C387.931 102.847 394.323 114.623 399.56 127.005C404.895 139.619 408.935 152.635 411.681 166.054C414.498 179.818 415.906 193.784 415.906 207.953C415.906 222.122 414.498 236.088 411.681 249.852C408.935 263.271 404.895 276.288 399.56 288.901C394.323 301.283 387.931 313.059 380.385 324.229C372.912 335.29 364.45 345.546 354.998 354.998C345.546 364.45 335.29 372.912 324.229 380.385C313.059 387.931 301.283 394.323 288.901 399.56C276.288 404.895 263.271 408.935 249.852 411.681C236.088 414.498 222.122 415.906 207.953 415.906C193.784 415.906 179.818 414.498 166.054 411.681C152.635 408.935 139.618 404.895 127.005 399.56C114.623 394.323 102.847 387.931 91.6775 380.385C80.6166 372.912 70.3602 364.45 60.908 354.998C51.456 345.546 42.9937 335.29 35.5211 324.229C27.975 313.059 21.5833 301.283 16.3461 288.901C11.0111 276.288 6.97067 263.271 4.22472 249.852C1.40824 236.088 -1.02481e-06 222.122 0 207.953L0 207.953ZM20.1485 207.953C20.1485 233.43 25.0667 257.796 34.903 281.052C39.631 292.23 45.4022 302.863 52.2166 312.949C58.9681 322.943 66.6143 332.21 75.1552 340.751C83.6963 349.292 92.9635 356.938 102.957 363.689C113.043 370.504 123.676 376.275 134.854 381.003C158.11 390.839 182.476 395.757 207.953 395.757C233.43 395.757 257.796 390.839 281.052 381.003C292.23 376.275 302.863 370.504 312.949 363.689C322.943 356.938 332.21 349.292 340.751 340.751C349.292 332.21 356.938 322.943 363.689 312.949C370.504 302.863 376.275 292.23 381.003 281.052C390.839 257.796 395.757 233.43 395.757 207.953C395.757 182.476 390.839 158.11 381.003 134.854C376.275 123.676 370.504 113.043 363.689 102.957C356.938 92.9633 349.292 83.6961 340.751 75.1552C332.21 66.6143 322.943 58.9681 312.949 52.2166C302.863 45.4022 292.23 39.631 281.052 34.903C257.796 25.0667 233.43 20.1485 207.953 20.1485C182.476 20.1485 158.11 25.0667 134.854 34.903C123.676 39.631 113.043 45.4022 102.957 52.2166C92.9633 58.9681 83.6962 66.6142 75.1552 75.1552C66.6143 83.6961 58.9681 92.9633 52.2166 102.957C45.4022 113.043 39.631 123.676 34.903 134.854C25.0667 158.11 20.1485 182.476 20.1485 207.953L20.1485 207.953Z" id="Vector" fill="url(#gradient_1)" fill-rule="evenodd" stroke="none" />
        <path d="M0 197.879C0 88.5934 88.5934 0 197.879 0C307.164 0 395.757 88.5934 395.757 197.879C395.757 307.164 307.164 395.757 197.879 395.757C88.5934 395.757 0 307.164 0 197.879L0 197.879Z" transform="translate(10.074265 10.074265)" id="path_1" fill="#181A1D" fill-rule="evenodd" stroke="none" />
      </g>
    </g>
  </g>
  <g id="Group-53" transform="translate(70.39429 72.64334)">
    <path d="M54.5415 6.91869L-8.01086e-05 217.815L210.896 272.357L191.788 239.917L30.8988 198.308L72.5075 37.419L54.5415 6.91869ZM203.801 236.668L246.578 71.2631L81.1729 28.4864L64.3931 1.16253e-06L276.606 54.8819L221.724 267.094L203.801 236.668Z" id="Rectangle-42-Difference-Difference" fill="url(#gradient_2)" fill-rule="evenodd" stroke="none" />
    <g id="Ellipse-2">
      <g clip-path="url(#clip_1)">
        <use xlink:href="#path_2" fill="none" stroke="url(#gradient_3)" stroke-width="30" />
      </g>
    </g>
  </g>
</svg>